<mxfile host="app.diagrams.net" modified="2022-07-18T06:57:22.871Z" agent="5.0 (Windows NT 10.0; Win64; x64) AppleWebKit/537.36 (KHTML, like Gecko) Chrome/103.0.5060.114 Safari/537.36 Edg/103.0.1264.62" etag="duIoRGGFkhqBDfAJfGB9" version="20.1.1" type="github">
  <diagram id="3DF-HMF9YldkH5yhk9YW" name="第 1 页">
    <mxGraphModel dx="942" dy="574" grid="1" gridSize="10" guides="1" tooltips="1" connect="1" arrows="1" fold="1" page="1" pageScale="1" pageWidth="827" pageHeight="1169" math="0" shadow="0">
      <root>
        <mxCell id="0" />
        <mxCell id="1" parent="0" />
        <mxCell id="la58n8PUMo0xB4A3V1Z5-13" style="edgeStyle=orthogonalEdgeStyle;rounded=0;orthogonalLoop=1;jettySize=auto;html=1;strokeWidth=1;entryX=0;entryY=0.25;entryDx=0;entryDy=0;startArrow=none;" edge="1" parent="1" source="la58n8PUMo0xB4A3V1Z5-15" target="la58n8PUMo0xB4A3V1Z5-4">
          <mxGeometry relative="1" as="geometry">
            <mxPoint x="280" y="210" as="targetPoint" />
          </mxGeometry>
        </mxCell>
        <mxCell id="la58n8PUMo0xB4A3V1Z5-2" value="中国银行注册系统" style="rounded=0;whiteSpace=wrap;html=1;fillColor=#CCE5FF;" vertex="1" parent="1">
          <mxGeometry x="60" y="155" width="100" height="100" as="geometry" />
        </mxCell>
        <mxCell id="la58n8PUMo0xB4A3V1Z5-14" style="edgeStyle=orthogonalEdgeStyle;rounded=0;orthogonalLoop=1;jettySize=auto;html=1;entryX=0;entryY=0.75;entryDx=0;entryDy=0;strokeWidth=1;startArrow=none;" edge="1" parent="1" source="la58n8PUMo0xB4A3V1Z5-18" target="la58n8PUMo0xB4A3V1Z5-4">
          <mxGeometry relative="1" as="geometry" />
        </mxCell>
        <mxCell id="la58n8PUMo0xB4A3V1Z5-3" value="中国银行登陆系统" style="rounded=0;whiteSpace=wrap;html=1;fillColor=#CCE5FF;" vertex="1" parent="1">
          <mxGeometry x="60" y="345" width="100" height="100" as="geometry" />
        </mxCell>
        <mxCell id="la58n8PUMo0xB4A3V1Z5-4" value="" style="rounded=0;whiteSpace=wrap;html=1;fillColor=#FFF2CC;" vertex="1" parent="1">
          <mxGeometry x="290" y="110" width="120" height="380" as="geometry" />
        </mxCell>
        <mxCell id="la58n8PUMo0xB4A3V1Z5-5" value="短信服务系统" style="text;html=1;resizable=0;autosize=1;align=center;verticalAlign=middle;points=[];fillColor=none;strokeColor=none;rounded=0;" vertex="1" parent="1">
          <mxGeometry x="300" y="114" width="100" height="30" as="geometry" />
        </mxCell>
        <mxCell id="la58n8PUMo0xB4A3V1Z5-6" value="短信验证码&lt;br&gt;发送模块" style="rounded=0;whiteSpace=wrap;html=1;fillColor=#CCFFFF;" vertex="1" parent="1">
          <mxGeometry x="300" y="160" width="100" height="60" as="geometry" />
        </mxCell>
        <mxCell id="la58n8PUMo0xB4A3V1Z5-7" value="短信验证码&lt;br&gt;存储模块" style="rounded=0;whiteSpace=wrap;html=1;fillColor=#E6FFCC;" vertex="1" parent="1">
          <mxGeometry x="300" y="240" width="100" height="60" as="geometry" />
        </mxCell>
        <mxCell id="la58n8PUMo0xB4A3V1Z5-8" value="短信验证码对比验证模块" style="rounded=0;whiteSpace=wrap;html=1;fillColor=#FFE6CC;" vertex="1" parent="1">
          <mxGeometry x="300" y="320" width="100" height="60" as="geometry" />
        </mxCell>
        <mxCell id="la58n8PUMo0xB4A3V1Z5-9" value="短信验证码&lt;br&gt;限制模块" style="rounded=0;whiteSpace=wrap;html=1;fillColor=#CCCCFF;" vertex="1" parent="1">
          <mxGeometry x="300" y="400" width="100" height="60" as="geometry" />
        </mxCell>
        <mxCell id="la58n8PUMo0xB4A3V1Z5-10" value="网易云信短信服务" style="rounded=0;whiteSpace=wrap;html=1;fillColor=#FFFFFF;" vertex="1" parent="1">
          <mxGeometry x="520" y="246" width="120" height="60" as="geometry" />
        </mxCell>
        <mxCell id="la58n8PUMo0xB4A3V1Z5-11" value="运营商服务" style="rounded=0;whiteSpace=wrap;html=1;fillColor=#FFFFFF;" vertex="1" parent="1">
          <mxGeometry x="680" y="246" width="120" height="60" as="geometry" />
        </mxCell>
        <mxCell id="la58n8PUMo0xB4A3V1Z5-12" value="" style="endArrow=none;html=1;rounded=0;strokeWidth=3;" edge="1" parent="1">
          <mxGeometry width="50" height="50" relative="1" as="geometry">
            <mxPoint x="35" y="540" as="sourcePoint" />
            <mxPoint x="810" y="540" as="targetPoint" />
          </mxGeometry>
        </mxCell>
        <mxCell id="la58n8PUMo0xB4A3V1Z5-15" value="HTTPS" style="text;html=1;resizable=0;autosize=1;align=center;verticalAlign=middle;points=[];fillColor=none;strokeColor=none;rounded=0;" vertex="1" parent="1">
          <mxGeometry x="202" y="190" width="60" height="30" as="geometry" />
        </mxCell>
        <mxCell id="la58n8PUMo0xB4A3V1Z5-17" value="" style="edgeStyle=orthogonalEdgeStyle;rounded=0;orthogonalLoop=1;jettySize=auto;html=1;strokeWidth=1;entryX=0.017;entryY=0.5;entryDx=0;entryDy=0;endArrow=none;entryPerimeter=0;" edge="1" parent="1" source="la58n8PUMo0xB4A3V1Z5-2" target="la58n8PUMo0xB4A3V1Z5-15">
          <mxGeometry relative="1" as="geometry">
            <mxPoint x="290" y="205" as="targetPoint" />
            <mxPoint x="190" y="205" as="sourcePoint" />
          </mxGeometry>
        </mxCell>
        <mxCell id="la58n8PUMo0xB4A3V1Z5-18" value="HTTPS" style="text;html=1;resizable=0;autosize=1;align=center;verticalAlign=middle;points=[];fillColor=none;strokeColor=none;rounded=0;" vertex="1" parent="1">
          <mxGeometry x="202" y="380" width="60" height="30" as="geometry" />
        </mxCell>
        <mxCell id="la58n8PUMo0xB4A3V1Z5-19" value="" style="edgeStyle=orthogonalEdgeStyle;rounded=0;orthogonalLoop=1;jettySize=auto;html=1;strokeWidth=1;endArrow=none;" edge="1" parent="1" source="la58n8PUMo0xB4A3V1Z5-3">
          <mxGeometry relative="1" as="geometry">
            <mxPoint x="173" y="395" as="sourcePoint" />
            <mxPoint x="190" y="395" as="targetPoint" />
          </mxGeometry>
        </mxCell>
        <mxCell id="la58n8PUMo0xB4A3V1Z5-23" value="" style="endArrow=classic;startArrow=none;html=1;rounded=0;strokeWidth=1;exitX=1.013;exitY=0.507;exitDx=0;exitDy=0;exitPerimeter=0;entryX=0;entryY=0.5;entryDx=0;entryDy=0;" edge="1" parent="1" source="la58n8PUMo0xB4A3V1Z5-24" target="la58n8PUMo0xB4A3V1Z5-10">
          <mxGeometry width="50" height="50" relative="1" as="geometry">
            <mxPoint x="470" y="325" as="sourcePoint" />
            <mxPoint x="520" y="275" as="targetPoint" />
          </mxGeometry>
        </mxCell>
        <mxCell id="la58n8PUMo0xB4A3V1Z5-24" value="HTTPS" style="text;html=1;resizable=0;autosize=1;align=center;verticalAlign=middle;points=[];fillColor=none;strokeColor=none;rounded=0;" vertex="1" parent="1">
          <mxGeometry x="435" y="261" width="60" height="30" as="geometry" />
        </mxCell>
        <mxCell id="la58n8PUMo0xB4A3V1Z5-25" value="" style="endArrow=none;startArrow=classic;html=1;rounded=0;strokeWidth=1;exitX=0.997;exitY=0.436;exitDx=0;exitDy=0;exitPerimeter=0;entryX=0.023;entryY=0.493;entryDx=0;entryDy=0;entryPerimeter=0;" edge="1" parent="1" source="la58n8PUMo0xB4A3V1Z5-4" target="la58n8PUMo0xB4A3V1Z5-24">
          <mxGeometry width="50" height="50" relative="1" as="geometry">
            <mxPoint x="409.6399999999999" y="275.67999999999995" as="sourcePoint" />
            <mxPoint x="520" y="275" as="targetPoint" />
          </mxGeometry>
        </mxCell>
        <mxCell id="la58n8PUMo0xB4A3V1Z5-29" value="" style="endArrow=classic;startArrow=classic;html=1;rounded=0;strokeWidth=1;entryX=0;entryY=0.5;entryDx=0;entryDy=0;exitX=1;exitY=0.5;exitDx=0;exitDy=0;strokeColor=#FF0000;" edge="1" parent="1" source="la58n8PUMo0xB4A3V1Z5-10" target="la58n8PUMo0xB4A3V1Z5-11">
          <mxGeometry width="50" height="50" relative="1" as="geometry">
            <mxPoint x="640" y="310" as="sourcePoint" />
            <mxPoint x="690" y="260" as="targetPoint" />
          </mxGeometry>
        </mxCell>
        <mxCell id="la58n8PUMo0xB4A3V1Z5-30" value="联机接口" style="text;html=1;resizable=0;autosize=1;align=center;verticalAlign=middle;points=[];fillColor=none;strokeColor=none;rounded=0;" vertex="1" parent="1">
          <mxGeometry x="350" y="555" width="70" height="30" as="geometry" />
        </mxCell>
        <mxCell id="la58n8PUMo0xB4A3V1Z5-31" value="" style="endArrow=classic;html=1;rounded=0;strokeWidth=1;" edge="1" parent="1">
          <mxGeometry width="50" height="50" relative="1" as="geometry">
            <mxPoint x="414" y="569.5" as="sourcePoint" />
            <mxPoint x="459" y="569.5" as="targetPoint" />
          </mxGeometry>
        </mxCell>
        <mxCell id="la58n8PUMo0xB4A3V1Z5-32" value="批量接口" style="text;html=1;resizable=0;autosize=1;align=center;verticalAlign=middle;points=[];fillColor=none;strokeColor=none;rounded=0;" vertex="1" parent="1">
          <mxGeometry x="480" y="555" width="70" height="30" as="geometry" />
        </mxCell>
        <mxCell id="la58n8PUMo0xB4A3V1Z5-33" value="" style="endArrow=classic;html=1;rounded=0;strokeWidth=1;dashed=1;" edge="1" parent="1">
          <mxGeometry width="50" height="50" relative="1" as="geometry">
            <mxPoint x="544" y="569.5" as="sourcePoint" />
            <mxPoint x="589" y="569.5" as="targetPoint" />
          </mxGeometry>
        </mxCell>
        <mxCell id="la58n8PUMo0xB4A3V1Z5-34" value="注：红色为已有连接，黑色为新增连接" style="text;html=1;resizable=0;autosize=1;align=center;verticalAlign=middle;points=[];fillColor=none;strokeColor=none;rounded=0;" vertex="1" parent="1">
          <mxGeometry x="590" y="550" width="230" height="30" as="geometry" />
        </mxCell>
        <mxCell id="la58n8PUMo0xB4A3V1Z5-35" value="" style="rounded=0;whiteSpace=wrap;html=1;fillColor=#CCE5FF;" vertex="1" parent="1">
          <mxGeometry x="575" y="610" width="80" height="30" as="geometry" />
        </mxCell>
        <mxCell id="la58n8PUMo0xB4A3V1Z5-36" value="改造系统" style="text;html=1;resizable=0;autosize=1;align=center;verticalAlign=middle;points=[];fillColor=none;strokeColor=none;rounded=0;" vertex="1" parent="1">
          <mxGeometry x="505" y="610" width="70" height="30" as="geometry" />
        </mxCell>
        <mxCell id="la58n8PUMo0xB4A3V1Z5-37" value="" style="rounded=0;whiteSpace=wrap;html=1;fillColor=#FFF2CC;" vertex="1" parent="1">
          <mxGeometry x="425" y="610" width="80" height="30" as="geometry" />
        </mxCell>
        <mxCell id="la58n8PUMo0xB4A3V1Z5-38" value="新建系统" style="text;html=1;resizable=0;autosize=1;align=center;verticalAlign=middle;points=[];fillColor=none;strokeColor=none;rounded=0;" vertex="1" parent="1">
          <mxGeometry x="355" y="610" width="70" height="30" as="geometry" />
        </mxCell>
        <mxCell id="la58n8PUMo0xB4A3V1Z5-39" value="" style="rounded=0;whiteSpace=wrap;html=1;fillColor=#FFFFFF;" vertex="1" parent="1">
          <mxGeometry x="740" y="610" width="80" height="30" as="geometry" />
        </mxCell>
        <mxCell id="la58n8PUMo0xB4A3V1Z5-40" value="配合系统" style="text;html=1;resizable=0;autosize=1;align=center;verticalAlign=middle;points=[];fillColor=none;strokeColor=none;rounded=0;" vertex="1" parent="1">
          <mxGeometry x="670" y="610" width="70" height="30" as="geometry" />
        </mxCell>
      </root>
    </mxGraphModel>
  </diagram>
</mxfile>
